<svg width="24" height="24" viewBox="0 0 24 24" fill="none" xmlns="http://www.w3.org/2000/svg">
<path d="M16.3535 8.35355C16.5488 8.15829 16.5488 7.84171 16.3535 7.64645C16.1583 7.45118 15.8417 7.45118 15.6464 7.64645L16.3535 8.35355ZM7.64645 15.6464C7.45118 15.8417 7.45118 16.1583 7.64645 16.3536C7.84171 16.5488 8.15829 16.5488 8.35355 16.3536L7.64645 15.6464ZM8.35356 7.64645C8.1583 7.45118 7.84172 7.45118 7.64645 7.64645C7.45119 7.84171 7.45119 8.15829 7.64645 8.35355L8.35356 7.64645ZM15.6464 16.3536C15.8417 16.5488 16.1583 16.5488 16.3536 16.3536C16.5488 16.1583 16.5488 15.8417 16.3536 15.6464L15.6464 16.3536ZM15.6464 7.64645L7.64645 15.6464L8.35355 16.3536L16.3535 8.35355L15.6464 7.64645ZM7.64645 8.35355L15.6464 16.3536L16.3536 15.6464L8.35356 7.64645L7.64645 8.35355Z" fill="#7C7C7A"/>
</svg>
