<svg width="18" height="20" viewBox="0 0 18 20" fill="none" xmlns="http://www.w3.org/2000/svg">
<path d="M8.25 11.0499V0.899902H9.75V11.0499H8.25ZM9 19.0499C7.76667 19.0499 6.60417 18.8124 5.5125 18.3374C4.42083 17.8624 3.46667 17.2166 2.65 16.3999C1.83333 15.5832 1.1875 14.6291 0.7125 13.5374C0.2375 12.4457 0 11.2832 0 10.0499C0 8.71657 0.283333 7.47074 0.85 6.3124C1.41667 5.15407 2.21667 4.1249 3.25 3.2249L4.3 4.2749C3.41667 4.99157 2.72917 5.84574 2.2375 6.8374C1.74583 7.82907 1.5 8.8999 1.5 10.0499C1.5 12.1332 2.22917 13.9041 3.6875 15.3624C5.14583 16.8207 6.91667 17.5499 9 17.5499C11.0833 17.5499 12.8542 16.8207 14.3125 15.3624C15.7708 13.9041 16.5 12.1332 16.5 10.0499C16.5 8.8999 16.2542 7.82074 15.7625 6.8124C15.2708 5.80407 14.6 4.95824 13.75 4.2749L14.825 3.2249C15.825 4.0749 16.6042 5.09157 17.1625 6.2749C17.7208 7.45824 18 8.71657 18 10.0499C18 11.2832 17.7625 12.4457 17.2875 13.5374C16.8125 14.6291 16.1708 15.5832 15.3625 16.3999C14.5542 17.2166 13.6042 17.8624 12.5125 18.3374C11.4208 18.8124 10.25 19.0499 9 19.0499Z" fill="#7C7C7A"/>
</svg>
