<svg width="28" height="28" viewBox="0 0 28 28" fill="none" xmlns="http://www.w3.org/2000/svg">
<path d="M17.627 9.72001L11.907 15.4533L9.707 13.2533C9.58747 13.1138 9.44038 13.0004 9.27496 12.9204C9.10954 12.8403 8.92936 12.7954 8.74574 12.7883C8.56211 12.7812 8.379 12.8121 8.2079 12.8792C8.0368 12.9462 7.8814 13.0479 7.75146 13.1778C7.62152 13.3077 7.51985 13.4631 7.45282 13.6342C7.38578 13.8053 7.35484 13.9885 7.36193 14.1721C7.36903 14.3557 7.414 14.5359 7.49403 14.7013C7.57406 14.8667 7.68742 15.0138 7.827 15.1333L10.9603 18.28C11.0849 18.4036 11.2327 18.5013 11.3951 18.5677C11.5576 18.6341 11.7315 18.6677 11.907 18.6667C12.2568 18.6652 12.592 18.5263 12.8403 18.28L19.507 11.6133C19.632 11.4894 19.7312 11.3419 19.7989 11.1794C19.8665 11.017 19.9014 10.8427 19.9014 10.6667C19.9014 10.4907 19.8665 10.3164 19.7989 10.1539C19.7312 9.99142 19.632 9.84396 19.507 9.72001C19.2572 9.47167 18.9192 9.33228 18.567 9.33228C18.2148 9.33228 17.8768 9.47167 17.627 9.72001ZM14.0003 0.666672C11.3632 0.666672 8.78538 1.44866 6.59273 2.91374C4.40007 4.37883 2.69111 6.46121 1.68194 8.89756C0.672769 11.3339 0.408725 14.0148 0.923194 16.6012C1.43766 19.1876 2.70754 21.5634 4.57224 23.4281C6.43694 25.2928 8.81271 26.5627 11.3991 27.0771C13.9855 27.5916 16.6664 27.3276 19.1028 26.3184C21.5391 25.3092 23.6215 23.6003 25.0866 21.4076C26.5517 19.215 27.3337 16.6371 27.3337 14C27.3337 12.249 26.9888 10.5152 26.3187 8.89756C25.6487 7.27988 24.6665 5.81003 23.4284 4.57191C22.1903 3.3338 20.7205 2.35167 19.1028 1.68161C17.4851 1.01155 15.7513 0.666672 14.0003 0.666672ZM14.0003 24.6667C11.8907 24.6667 9.82837 24.0411 8.07425 22.869C6.32012 21.6969 4.95295 20.031 4.14562 18.082C3.33828 16.1329 3.12705 13.9882 3.53862 11.919C3.9502 9.84991 4.9661 7.94929 6.45786 6.45753C7.94962 4.96577 9.85024 3.94987 11.9194 3.5383C13.9885 3.12672 16.1332 3.33796 18.0823 4.14529C20.0314 4.95263 21.6973 6.3198 22.8693 8.07392C24.0414 9.82805 24.667 11.8903 24.667 14C24.667 16.829 23.5432 19.5421 21.5428 21.5425C19.5424 23.5429 16.8293 24.6667 14.0003 24.6667Z" fill="#F4FFF8"/>
</svg>
